<svg xmlns="http://www.w3.org/2000/svg" width="75" height="75" data-name="Layer 2" viewBox="0 0 200 205.7">
  <g data-name="Layer 1">
    <path d="m200 0-59 40-3 1a99820 99820 0 0 0-78-1L0 0v161l54 45h92v-1l54-44V0Zm-12 130h-36v55l-1 1-9 7-1 1H58l-1-1a2228 2228 0 0 1-9-8v-54l-1-1H31v-9h16l1-1v-8h7c-4 2-7 6-6 11 1 8 10 12 16 7 7-5 6-15-2-18h35l1-1V52h41v37h48v41Z" class="cls-1"/>
    <path d="M99 52v60h-1a4944 4944 0 0 1-43 0h-7v8l-1 1H31l1 10h16v55l-36-30V89h48V52h39Z" style="fill:#6e4d8f;stroke-width:0"/>
    <path d="M63 112c8 3 9 13 3 18a10 10 0 1 1-11-18h8Z" class="cls-1"/>
    <circle cx="140.5" cy="121.8" r="10.5" class="cls-1"/>
    <path d="M77 151c0-2 2-4 4-4h38c2 0 4 1 4 3a10472 10472 0 0 1-23 24 7106 7106 0 0 1-23-23Z" class="cls-1"/>
  </g>
</svg>