<svg width="24" height="24" viewBox="0 -0.5 25 25" fill="none" xmlns="http://www.w3.org/2000/svg">
  <path clip-rule="evenodd" d="M5.5 12.954A4.093 4.093 0 0 0 9.64 17h2.006a2 2 0 0 1 1.444.618l1.069 1.118a.9.9 0 0 0 1.281 0L17.1 17l.545-.608c.1-.109.21-.21.327-.3a4 4 0 0 0 1.528-3.138v-4.91A4.093 4.093 0 0 0 15.36 4H9.64A4.093 4.093 0 0 0 5.5 8.044v4.91Z" stroke="#000" stroke-width="1.5" stroke-linecap="round" stroke-linejoin="round"/>
  <path d="M16.196 12.325a.75.75 0 0 0-1.392-.56l1.392.56Zm-1.58.925.474.582.003-.003-.477-.579Zm-4.252-.03-.486.57.004.004.482-.575Zm-.164-1.49a.75.75 0 0 0-1.4.538l1.4-.537ZM10.25 8a.75.75 0 1 0-1.5 0h1.5Zm-1.5 1a.75.75 0 0 0 1.5 0h-1.5Zm7.5-1a.75.75 0 0 0-1.5 0h1.5Zm-1.5 1a.75.75 0 0 0 1.5 0h-1.5Zm.054 2.763c-.142.353-.37.665-.665.907l.954 1.158a3.776 3.776 0 0 0 1.103-1.505l-1.392-.56Zm-.662.905a2.586 2.586 0 0 1-3.296-.024l-.964 1.149a4.086 4.086 0 0 0 5.208.038l-.948-1.163Zm-3.292-.021a2.268 2.268 0 0 1-.65-.916l-1.4.537a3.77 3.77 0 0 0 1.078 1.522l.972-1.143ZM8.75 8v1h1.5V8h-1.5Zm6 0v1h1.5V8h-1.5Z" fill="#000"/>
</svg>
