<svg xmlns="http://www.w3.org/2000/svg" width="75" height="75" data-name="Layer 2" viewBox="0 0 200.9 191.3">
  <g data-name="Layer 1">
    <path d="M179 62V22l6-11h-1l-43 18h-1l-11-7-2-1 62-21v104l-10 6M76 24 0 1v138h14l16-11v-1H16V89l9-11-20-3 48-34 1-1a5637 5637 0 0 0 22-16Zm-26 5h-1L21 45 4 11h1l44 18h1Z" class="cls-1"/>
    <path d="m179 23-12 22-35-20c-3-2-7-4-10-2V7h-19l-4 1-4 2v1h-1l-2 1-3 3-4 2-3 3-3 2-4 3-3 2-3 3-4 2-3 2-4 3-3 2-2 2v60l36-5 5-1 6-4 13-10 11-4 55-14V23Z" style="fill:#5ba3aa;stroke-width:0"/>
    <path d="m189 61 11 8 1 1v88h-51v33H71a48 48 0 0 0-2-3 2173 2173 0 0 1 39-11 943 943 0 0 0 11-10l-12-21v-21l22-3 1 1 5 4h28V90l1-1a1376 1376 0 0 1 15-17v38l10-7V61Z" style="fill:#6e4d8f;stroke-width:0"/>
    <path d="M20 123V92h22v27l-6 4H20Z" class="cls-1"/>
    <rect width="21.3" height="31.1" x="137.8" y="91.8" class="cls-1" rx=".1" ry=".1"/>
    <path d="M43 157v-6h35v7l-17 16h-1l-17-17Z" class="cls-1"/>
  </g>
</svg>